# Blender v3.0.0 OBJ File: 'cafe.blend'
# www.blender.org
mtllib cafe.mtl
o bar_Cube.001
v -1.000000 0.000000 6.000000
v -1.000000 2.000000 6.000000
v -1.000000 0.000000 -6.000000
v -1.000000 2.000000 -6.000000
v 1.000000 0.000000 6.000000
v 1.000000 2.000000 6.000000
v 1.000000 0.000000 -6.000000
v 1.000000 2.000000 -6.000000
vt 1.027995 0.250000
vt 1.027995 0.416667
vt 0.027995 0.416667
vt 0.027995 0.250000
vt 0.194662 0.083333
vt 0.361328 0.083333
vt 0.361328 0.250000
vt 0.194662 0.250000
vt 1.027995 0.416667
vt 1.027995 0.583333
vt 0.027995 0.583333
vt 0.027995 0.416667
vt 0.027995 0.083333
vt 0.194662 0.083333
vt 0.194662 0.250000
vt 0.027995 0.250000
vt 0.027995 0.750000
vt 0.027995 0.583333
vt 1.027995 0.583333
vt 1.027995 0.750000
vt 0.027995 0.916667
vt 0.027995 0.750000
vt 1.027995 0.750000
vt 1.027995 0.916667
vn -1.0000 0.0000 0.0000
vn 0.0000 0.0000 -1.0000
vn 1.0000 0.0000 0.0000
vn 0.0000 0.0000 1.0000
vn 0.0000 -1.0000 0.0000
vn 0.0000 1.0000 0.0000
usemtl desk
s off
f 1/1/1 2/2/1 4/3/1 3/4/1
f 3/5/2 4/6/2 8/7/2 7/8/2
f 7/9/3 8/10/3 6/11/3 5/12/3
f 5/13/4 6/14/4 2/15/4 1/16/4
f 3/17/5 7/18/5 5/19/5 1/20/5
f 8/21/6 4/22/6 2/23/6 6/24/6
o floor_Plane
v -11.641440 0.000000 11.641440
v 11.641440 0.000000 11.641440
v -11.641440 0.000000 -11.641440
v 11.641440 0.000000 -11.641440
vt 0.000000 0.000000
vt 1.000000 0.000000
vt 1.000000 1.000000
vt 0.000000 1.000000
vn 0.0000 1.0000 0.0000
usemtl Material.001
s off
f 9/25/7 10/26/7 12/27/7 11/28/7
